<mxfile host="app.diagrams.net" modified="2023-11-09T10:26:20.934Z" agent="Mozilla/5.0 (Windows NT 10.0; Win64; x64) AppleWebKit/537.36 (KHTML, like Gecko) Chrome/119.0.0.0 Safari/537.36" etag="P-00DuX1X9frxd8rXFGZ" version="22.1.0" type="device">
  <diagram name="Page-1" id="SgxBNJGfRNbBI8boRf72">
    <mxGraphModel dx="2261" dy="750" grid="1" gridSize="10" guides="1" tooltips="1" connect="1" arrows="1" fold="1" page="1" pageScale="1" pageWidth="827" pageHeight="1169" math="0" shadow="0">
      <root>
        <mxCell id="0" />
        <mxCell id="1" parent="0" />
        <mxCell id="CkG8hnrmna6ZqJMcQn-k-1" value="" style="rounded=0;whiteSpace=wrap;html=1;" vertex="1" parent="1">
          <mxGeometry x="200" y="190" width="480" height="290" as="geometry" />
        </mxCell>
        <mxCell id="CkG8hnrmna6ZqJMcQn-k-2" value="reservation-service" style="rounded=0;whiteSpace=wrap;html=1;" vertex="1" parent="1">
          <mxGeometry x="-60" y="125" width="120" height="60" as="geometry" />
        </mxCell>
        <mxCell id="CkG8hnrmna6ZqJMcQn-k-3" value="treatment-availability-service" style="rounded=0;whiteSpace=wrap;html=1;" vertex="1" parent="1">
          <mxGeometry x="840" y="500" width="120" height="60" as="geometry" />
        </mxCell>
        <mxCell id="CkG8hnrmna6ZqJMcQn-k-4" value="treatment-service" style="rounded=0;whiteSpace=wrap;html=1;" vertex="1" parent="1">
          <mxGeometry x="-70" y="480" width="120" height="60" as="geometry" />
        </mxCell>
        <mxCell id="CkG8hnrmna6ZqJMcQn-k-5" value="treatment-availability-service" style="rounded=0;whiteSpace=wrap;html=1;" vertex="1" parent="1">
          <mxGeometry x="850" y="310" width="120" height="60" as="geometry" />
        </mxCell>
        <mxCell id="CkG8hnrmna6ZqJMcQn-k-6" value="treatment-availability-service" style="rounded=0;whiteSpace=wrap;html=1;" vertex="1" parent="1">
          <mxGeometry x="840" y="110" width="120" height="60" as="geometry" />
        </mxCell>
        <mxCell id="CkG8hnrmna6ZqJMcQn-k-7" value="" style="endArrow=classic;html=1;rounded=0;exitX=1;exitY=0.5;exitDx=0;exitDy=0;entryX=-0.004;entryY=0.3;entryDx=0;entryDy=0;entryPerimeter=0;" edge="1" parent="1" source="CkG8hnrmna6ZqJMcQn-k-2" target="CkG8hnrmna6ZqJMcQn-k-1">
          <mxGeometry width="50" height="50" relative="1" as="geometry">
            <mxPoint x="390" y="410" as="sourcePoint" />
            <mxPoint x="440" y="360" as="targetPoint" />
          </mxGeometry>
        </mxCell>
        <mxCell id="CkG8hnrmna6ZqJMcQn-k-8" value="" style="endArrow=classic;html=1;rounded=0;exitX=1;exitY=0.5;exitDx=0;exitDy=0;entryX=0;entryY=0.75;entryDx=0;entryDy=0;" edge="1" parent="1" source="CkG8hnrmna6ZqJMcQn-k-4" target="CkG8hnrmna6ZqJMcQn-k-1">
          <mxGeometry width="50" height="50" relative="1" as="geometry">
            <mxPoint x="390" y="410" as="sourcePoint" />
            <mxPoint x="440" y="360" as="targetPoint" />
          </mxGeometry>
        </mxCell>
        <mxCell id="CkG8hnrmna6ZqJMcQn-k-9" value="" style="endArrow=classic;html=1;rounded=0;exitX=0;exitY=0.5;exitDx=0;exitDy=0;entryX=1.004;entryY=0.11;entryDx=0;entryDy=0;entryPerimeter=0;" edge="1" parent="1" source="CkG8hnrmna6ZqJMcQn-k-6" target="CkG8hnrmna6ZqJMcQn-k-1">
          <mxGeometry width="50" height="50" relative="1" as="geometry">
            <mxPoint x="390" y="410" as="sourcePoint" />
            <mxPoint x="440" y="360" as="targetPoint" />
          </mxGeometry>
        </mxCell>
        <mxCell id="CkG8hnrmna6ZqJMcQn-k-10" value="" style="endArrow=classic;html=1;rounded=0;exitX=0;exitY=0.5;exitDx=0;exitDy=0;entryX=1;entryY=0.5;entryDx=0;entryDy=0;" edge="1" parent="1" source="CkG8hnrmna6ZqJMcQn-k-5" target="CkG8hnrmna6ZqJMcQn-k-1">
          <mxGeometry width="50" height="50" relative="1" as="geometry">
            <mxPoint x="878" y="218" as="sourcePoint" />
            <mxPoint x="700" y="320" as="targetPoint" />
          </mxGeometry>
        </mxCell>
        <mxCell id="CkG8hnrmna6ZqJMcQn-k-11" value="" style="endArrow=classic;html=1;rounded=0;exitX=-0.008;exitY=0.713;exitDx=0;exitDy=0;exitPerimeter=0;" edge="1" parent="1" source="CkG8hnrmna6ZqJMcQn-k-3" target="CkG8hnrmna6ZqJMcQn-k-1">
          <mxGeometry width="50" height="50" relative="1" as="geometry">
            <mxPoint x="680" y="565" as="sourcePoint" />
            <mxPoint x="685" y="460" as="targetPoint" />
          </mxGeometry>
        </mxCell>
        <mxCell id="CkG8hnrmna6ZqJMcQn-k-12" value="" style="endArrow=classic;html=1;rounded=0;exitX=0.008;exitY=0.107;exitDx=0;exitDy=0;exitPerimeter=0;" edge="1" parent="1" source="CkG8hnrmna6ZqJMcQn-k-3">
          <mxGeometry width="50" height="50" relative="1" as="geometry">
            <mxPoint x="876" y="550" as="sourcePoint" />
            <mxPoint x="680" y="436" as="targetPoint" />
          </mxGeometry>
        </mxCell>
        <mxCell id="CkG8hnrmna6ZqJMcQn-k-13" value="treatment-availability-service" style="rounded=0;whiteSpace=wrap;html=1;" vertex="1" parent="1">
          <mxGeometry x="250" y="240" width="180" height="40" as="geometry" />
        </mxCell>
        <mxCell id="CkG8hnrmna6ZqJMcQn-k-14" value="treatment-availability-service" style="rounded=0;whiteSpace=wrap;html=1;" vertex="1" parent="1">
          <mxGeometry x="250" y="280" width="180" height="40" as="geometry" />
        </mxCell>
        <mxCell id="CkG8hnrmna6ZqJMcQn-k-15" value="treatment-availability-service" style="rounded=0;whiteSpace=wrap;html=1;" vertex="1" parent="1">
          <mxGeometry x="250" y="320" width="180" height="40" as="geometry" />
        </mxCell>
        <mxCell id="CkG8hnrmna6ZqJMcQn-k-16" value="10.10.123.1" style="rounded=0;whiteSpace=wrap;html=1;" vertex="1" parent="1">
          <mxGeometry x="430" y="240" width="180" height="40" as="geometry" />
        </mxCell>
        <mxCell id="CkG8hnrmna6ZqJMcQn-k-17" value="10.10.123.2" style="rounded=0;whiteSpace=wrap;html=1;" vertex="1" parent="1">
          <mxGeometry x="430" y="280" width="180" height="40" as="geometry" />
        </mxCell>
        <mxCell id="CkG8hnrmna6ZqJMcQn-k-18" value="10.10.123.3" style="rounded=0;whiteSpace=wrap;html=1;" vertex="1" parent="1">
          <mxGeometry x="430" y="320" width="180" height="40" as="geometry" />
        </mxCell>
        <mxCell id="CkG8hnrmna6ZqJMcQn-k-19" value="Discovery Server" style="text;html=1;strokeColor=none;fillColor=none;align=center;verticalAlign=middle;whiteSpace=wrap;rounded=0;fontStyle=1;fontSize=14;" vertex="1" parent="1">
          <mxGeometry x="375" y="140" width="130" height="30" as="geometry" />
        </mxCell>
      </root>
    </mxGraphModel>
  </diagram>
</mxfile>
